<?xml version="1.0" standalone="no"?>
<!DOCTYPE svg PUBLIC "-//W3C//DTD SVG 20010904//EN"
 "http://www.w3.org/TR/2001/REC-SVG-20010904/DTD/svg10.dtd">
<svg version="1.0" xmlns="http://www.w3.org/2000/svg"
 width="800.000000pt" height="800.000000pt" viewBox="0 0 800.000000 800.000000"
 preserveAspectRatio="xMidYMid meet">
<metadata>
Created by potrace 1.14, written by Peter Selinger 2001-2017
</metadata>
<g transform="translate(0.000000,800.000000) scale(0.100000,-0.100000)"
fill="#000000" stroke="none">
<path d="M3775 6849 c7 -11 35 -12 35 -1 0 4 -9 8 -20 9 -11 1 -18 -2 -15 -8z"/>
<path d="M4147 6568 c-10 -11 -16 -22 -14 -25 5 -5 47 33 47 42 0 10 -16 3
-33 -17z"/>
<path d="M3799 6533 c-5 -12 -15 -23 -23 -23 -10 0 -13 6 -10 15 4 8 1 15 -4
15 -17 0 -20 -13 -11 -46 9 -30 39 -52 69 -49 8 1 23 3 32 3 11 1 15 7 12 17
-4 8 -10 12 -15 9 -5 -3 -9 -1 -9 4 0 6 -9 8 -20 5 -24 -6 -28 18 -5 37 10 9
15 9 15 1 0 -6 -5 -11 -11 -11 -5 0 -8 -4 -5 -9 3 -4 17 -6 31 -3 18 3 25 11
25 27 0 18 -7 24 -31 27 -25 4 -32 1 -40 -19z"/>
<path d="M3828 6127 c-27 -28 -48 -54 -48 -58 0 -8 26 -19 55 -24 27 -4 82
100 64 121 -16 20 -18 18 -71 -39z"/>
<path d="M2090 6134 c0 -9 12 -33 28 -55 25 -35 30 -38 62 -33 38 7 65 24 37
24 -9 0 -17 5 -17 10 0 6 6 10 13 10 8 0 7 3 -3 10 -9 6 -17 5 -22 -3 -6 -9
-12 -9 -28 1 -11 6 -27 12 -35 12 -8 0 -15 9 -15 20 0 11 -4 20 -10 20 -5 0
-10 -7 -10 -16z"/>
<path d="M5855 6020 c3 -5 8 -10 11 -10 2 0 4 5 4 10 0 6 -5 10 -11 10 -5 0
-7 -4 -4 -10z"/>
<path d="M4175 5780 c3 -5 8 -10 11 -10 2 0 4 5 4 10 0 6 -5 10 -11 10 -5 0
-7 -4 -4 -10z"/>
<path d="M4093 5584 c-8 -4 -9 -14 -2 -36 4 -17 6 -35 3 -39 -3 -5 1 -9 9 -9
15 0 47 31 47 46 0 5 -4 3 -9 -4 -6 -10 -11 -6 -19 17 -6 17 -12 31 -14 30 -2
0 -8 -3 -15 -5z"/>
<path d="M6100 5260 c-13 -8 -12 -10 3 -10 9 0 17 5 17 10 0 12 -1 12 -20 0z"/>
<path d="M1890 5194 c0 -8 5 -12 10 -9 6 3 10 10 10 16 0 5 -4 9 -10 9 -5 0
-10 -7 -10 -16z"/>
<path d="M1935 5138 c1 -13 3 -27 4 -33 0 -5 8 -2 17 7 15 15 15 18 1 32 -21
21 -25 20 -22 -6z"/>
<path d="M2463 5045 c-7 -8 -10 -21 -7 -29 10 -26 23 -18 22 14 -1 17 -1 30
-2 30 -1 -1 -7 -7 -13 -15z"/>
<path d="M2126 4943 c-6 -14 -5 -15 5 -6 7 7 10 15 7 18 -3 3 -9 -2 -12 -12z"/>
<path d="M4996 4894 c-6 -15 -4 -15 11 -3 10 7 20 15 22 16 2 2 -3 3 -11 3 -9
0 -19 -7 -22 -16z"/>
<path d="M2993 4871 c1 -13 15 -24 47 -34 78 -26 190 -75 221 -98 17 -12 32
-19 35 -17 2 3 -13 17 -35 32 -22 15 -42 34 -45 42 -3 8 -17 14 -31 14 -14 0
-28 7 -31 15 -5 11 -15 14 -38 10 -25 -5 -37 -1 -65 24 -40 35 -60 40 -58 12z"/>
<path d="M3325 4720 c3 -5 8 -10 11 -10 2 0 4 5 4 10 0 6 -5 10 -11 10 -5 0
-7 -4 -4 -10z"/>
<path d="M3961 4546 c-8 -10 -9 -16 -1 -21 13 -8 30 3 30 21 0 18 -14 18 -29
0z"/>
<path d="M5152 4378 c-46 -4 -89 -11 -95 -16 -14 -11 -103 -27 -132 -24 -11 1
-38 -7 -60 -18 -22 -11 -48 -20 -60 -20 -27 0 -93 -24 -107 -38 -7 -7 -19 -12
-28 -12 -28 0 -110 -31 -110 -42 0 -5 -6 -8 -12 -5 -11 4 -63 -18 -78 -33 -3
-3 -12 -5 -20 -5 -8 0 -14 -5 -13 -11 1 -7 -5 -10 -15 -7 -10 2 -35 -8 -56
-22 -21 -14 -51 -29 -67 -32 -17 -3 -30 -12 -31 -22 -3 -34 -7 -99 -10 -168
-1 -40 -6 -73 -10 -73 -4 0 -19 10 -34 22 -61 54 -207 64 -318 22 -39 -15 -76
-31 -82 -36 -8 -5 -12 -4 -11 4 2 42 -18 100 -37 108 -15 6 -17 9 -5 9 15 1
29 28 29 58 0 14 -46 63 -60 63 -5 0 -15 6 -22 13 -32 31 -169 107 -192 107
-9 0 -16 4 -16 9 0 14 -52 24 -60 11 -5 -8 -9 -7 -13 4 -4 9 -12 16 -19 16 -7
0 -26 7 -42 15 -16 9 -31 13 -34 10 -3 -3 -15 1 -26 8 -12 8 -38 17 -58 21
-20 4 -38 11 -40 16 -5 15 -166 52 -243 56 -437 21 -538 9 -497 -56 8 -13 9
-20 1 -20 -6 0 -9 -17 -8 -43 2 -24 0 -47 -3 -52 -7 -13 -6 -205 1 -205 3 0 6
-30 6 -68 0 -71 13 -129 40 -182 21 -41 15 -46 -19 -15 -28 26 -63 35 -50 13
6 -10 5 -10 -7 -1 -33 26 -168 50 -251 44 -32 -2 -55 -142 -29 -176 5 -5 18
-48 31 -95 12 -47 26 -92 31 -102 6 -11 4 -18 -7 -22 -9 -3 -19 -4 -24 -1 -4
3 -17 -13 -27 -35 -16 -32 -23 -37 -34 -27 -7 7 -5 2 4 -10 18 -21 18 -21 -3
-28 -17 -5 -19 -9 -9 -21 7 -9 8 -14 3 -13 -22 4 -33 -2 -28 -16 4 -8 1 -15
-6 -15 -8 0 -11 -9 -7 -26 4 -21 1 -25 -14 -21 -14 4 -21 -1 -25 -19 -3 -13
-9 -24 -13 -24 -4 0 -6 -13 -5 -30 1 -16 -1 -30 -4 -31 -4 0 -18 -2 -31 -5
-14 -2 -28 1 -33 8 -6 11 -8 11 -8 0 0 -7 7 -15 15 -18 8 -4 12 -10 9 -15 -3
-5 -1 -9 4 -9 6 0 9 -18 9 -39 -1 -22 -5 -37 -9 -35 -4 3 -10 -7 -14 -22 -4
-16 -2 -29 5 -34 9 -5 8 -9 -6 -15 -10 -5 -22 -9 -27 -9 -5 -1 -11 -7 -14 -15
-3 -9 0 -11 9 -5 11 6 12 5 3 -7 -17 -23 -15 -59 4 -60 11 0 12 -3 5 -6 -7 -2
-13 -11 -13 -19 0 -8 -6 -13 -13 -11 -6 1 -11 -5 -11 -14 1 -11 -5 -15 -17
-12 -22 6 -26 -16 -7 -35 9 -9 7 -13 -8 -19 -21 -9 -31 -35 -12 -30 6 1 13
-11 14 -26 2 -23 0 -26 -11 -17 -8 7 -15 7 -19 1 -4 -6 3 -15 14 -21 18 -10
19 -13 5 -26 -8 -9 -13 -20 -10 -25 11 -17 -5 -30 -26 -19 -15 9 -19 7 -19 -5
0 -8 8 -15 18 -15 9 0 13 -4 7 -8 -5 -4 -12 -14 -14 -22 -2 -8 -6 -23 -8 -32
-3 -10 0 -18 6 -18 18 0 1 -28 -21 -33 -11 -3 -17 -10 -13 -16 4 -8 -2 -8 -20
-1 -14 5 -24 6 -21 1 4 -5 3 -11 -1 -14 -5 -2 -3 -2 4 -1 7 2 15 -1 18 -6 5
-9 -7 -14 -27 -11 -3 0 -5 -7 -4 -17 2 -13 11 -16 36 -14 28 3 31 2 19 -11 -8
-8 -18 -13 -22 -10 -5 3 -4 -4 2 -16 7 -11 16 -21 22 -21 5 0 3 -13 -6 -30
-21 -40 -25 -125 -8 -149 11 -17 11 -22 -2 -35 -14 -14 -14 -71 1 -85 2 -2 -4
-13 -13 -23 -15 -16 -15 -21 -3 -28 12 -8 12 -10 0 -14 -8 -2 -23 -7 -33 -10
-24 -8 -21 -33 4 -41 14 -5 18 -10 11 -17 -6 -6 -8 -17 -5 -24 3 -8 -1 -21 -8
-30 -10 -13 -10 -17 0 -24 8 -4 10 -13 7 -19 -4 -6 -1 -11 6 -11 8 -1 6 -6 -6
-15 -10 -8 -24 -11 -30 -8 -6 4 -5 0 2 -9 11 -14 5 -22 -50 -61 -136 -96 -173
-118 -325 -194 -254 -126 -402 -188 -450 -187 -24 1 -43 -2 -43 -6 0 -5 -10
-8 -22 -8 -13 0 -42 -7 -64 -15 -66 -25 -201 -46 -214 -33 -8 8 -13 8 -18 0
-4 -6 -17 -13 -30 -17 -19 -4 -21 -3 -11 9 8 10 9 14 0 14 -6 0 -14 -7 -17
-15 -4 -8 -17 -15 -31 -15 -16 0 -22 4 -17 12 5 8 2 9 -12 3 -29 -14 -166 -18
-237 -7 -34 5 -83 7 -109 4 l-48 -4 0 -574 0 -574 1134 0 c898 0 1135 3 1139
13 4 9 6 9 6 0 1 -10 580 -13 2861 -13 l2860 0 0 475 0 475 -22 0 c-13 0 -88
7 -168 16 -80 8 -199 19 -264 24 -97 7 -128 14 -169 34 -48 25 -74 26 -61 3 4
-7 -4 0 -18 15 -25 26 -38 29 -148 42 -52 7 -91 16 -111 26 -10 6 -28 10 -40
10 -12 0 -19 3 -16 7 9 9 -31 36 -42 28 -5 -3 -12 -1 -16 5 -3 5 -18 10 -33
10 -15 0 -44 10 -64 23 -110 67 -218 134 -253 159 -22 16 -57 40 -78 54 -37
24 -75 54 -106 85 -9 8 -29 23 -45 33 l-29 19 24 12 c32 18 34 53 3 61 -25 6
-32 28 -14 39 6 4 8 10 5 15 -3 4 5 10 16 13 34 9 20 43 -16 39 -23 -2 -26 0
-15 8 8 5 22 10 31 10 11 0 18 11 21 29 4 27 2 29 -15 20 -10 -6 -25 -8 -33
-5 -13 5 -13 10 1 35 9 18 21 28 29 25 7 -3 16 2 19 10 4 9 3 15 -1 15 -4 -1
-17 -1 -30 0 -19 1 -21 4 -12 20 7 14 7 22 0 26 -6 4 -8 11 -5 16 4 5 -3 9
-15 9 -18 0 -20 5 -16 30 2 16 0 30 -5 30 -5 0 -9 6 -9 14 0 8 -10 18 -21 21
-15 5 -18 10 -9 15 15 10 15 21 -2 31 -11 7 -11 12 0 29 7 11 10 26 6 32 -4 7
-3 8 4 4 19 -12 14 10 -7 28 -16 15 -18 22 -8 36 6 10 16 16 22 12 5 -3 4 2
-3 10 -8 9 -21 14 -30 11 -14 -4 -14 -3 -3 5 9 7 11 16 6 28 -5 11 -7 22 -7
27 1 4 -3 7 -9 7 -6 0 -10 15 -8 33 2 34 -15 87 -32 98 -6 4 -4 20 7 43 12 24
20 32 25 24 5 -7 10 -10 13 -8 2 3 -7 19 -21 35 -14 17 -22 24 -19 18 4 -7 4
-13 -1 -13 -4 0 -13 15 -19 34 -10 32 -9 35 14 41 19 5 22 8 12 20 -7 8 -17
12 -24 8 -6 -3 -8 -3 -4 1 3 4 0 19 -7 33 -8 15 -12 30 -9 35 3 4 -3 8 -13 8
-14 0 -15 2 -4 9 11 7 9 11 -8 20 -17 10 -19 15 -11 31 8 15 8 20 -1 20 -8 0
-8 4 1 15 11 14 7 19 -12 16 -7 -1 -12 22 -9 42 0 4 -3 7 -9 7 -5 0 -8 14 -6
31 4 32 -13 89 -26 89 -4 0 -8 8 -8 18 0 10 -4 22 -9 27 -9 9 -18 49 -20 87
-1 10 -14 24 -29 32 -22 12 -29 22 -30 47 0 18 4 41 9 51 7 13 6 18 -4 18 -19
0 -27 32 -14 56 5 10 6 16 2 12 -5 -5 -16 10 -26 31 -17 39 -82 91 -112 91
-23 0 -26 10 -11 45 26 64 12 152 -26 162 -11 3 -20 9 -20 15 0 5 -30 6 -72 3
-129 -11 -149 -12 -154 -4 -2 4 -16 6 -29 3 -14 -2 -25 0 -25 6 0 5 21 42 46
81 49 77 54 112 17 117 -18 3 -23 -2 -23 -17 0 -12 -5 -21 -10 -21 -6 0 -16
-12 -22 -27 -20 -46 -98 -132 -137 -152 -31 -16 -87 -30 -128 -33 -7 -1 -13
-4 -13 -7 0 -3 -35 -7 -78 -8 -42 -1 -97 -9 -121 -18 -24 -8 -52 -15 -63 -15
-11 0 -32 -9 -47 -19 -18 -13 -39 -19 -59 -16 -18 2 -32 0 -32 -4 0 -8 -110
-16 -190 -14 -49 2 -205 55 -232 80 -10 8 -22 32 -28 52 -7 20 -21 56 -32 80
-13 30 -16 46 -9 51 8 4 8 21 3 51 -5 25 -7 56 -5 69 2 14 3 44 3 67 0 23 6
48 14 56 8 8 12 17 9 21 -4 3 2 6 11 6 10 0 56 18 102 41 46 22 88 38 93 35 5
-3 25 5 44 18 19 13 37 22 40 20 8 -8 87 28 82 36 -3 5 3 6 14 3 10 -3 22 0
25 6 4 6 12 11 17 11 6 0 8 -4 4 -9 -3 -6 8 -6 27 0 92 29 381 91 435 93 33 2
65 6 70 9 5 3 26 2 46 -3 22 -5 35 -4 31 1 -7 11 46 1 60 -12 5 -4 19 -3 32 1
24 9 54 4 54 -9 0 -4 10 -18 22 -31 17 -18 18 -22 5 -17 -13 5 -17 1 -18 -16
0 -12 -2 -53 -3 -92 -11 -236 -10 -255 9 -255 27 0 38 51 40 190 3 208 -3 258
-28 272 -25 13 -266 17 -395 6z m-2127 -73 c39 -9 79 -18 90 -19 11 -2 31 -7
45 -13 66 -28 199 -73 216 -73 10 -1 30 -7 44 -15 14 -8 35 -14 48 -15 13 0
47 -16 77 -35 30 -19 55 -32 55 -29 0 4 6 1 14 -5 10 -8 16 -9 21 -1 11 18 23
11 18 -10 -3 -12 0 -20 7 -20 25 0 88 -99 75 -120 -3 -4 -7 -39 -10 -77 -2
-37 -6 -75 -8 -83 -17 -66 -20 -71 -41 -68 -11 1 -27 -2 -35 -6 -10 -7 -12 -5
-6 5 5 8 -2 5 -16 -6 -34 -28 -40 -38 -35 -57 5 -21 2 -22 -25 -8 -15 8 -19 7
-19 -5 0 -14 -10 -18 -27 -12 -5 1 -7 6 -5 11 2 5 -4 6 -12 3 -9 -4 -18 -2
-21 4 -4 5 -11 7 -16 4 -18 -12 -29 5 -18 27 10 19 9 20 -12 14 -47 -14 -244
-19 -267 -7 -15 8 -22 8 -22 1 0 -8 -6 -8 -20 0 -11 6 -20 7 -20 1 0 -11 30
-25 48 -22 7 1 12 -2 11 -6 -3 -19 3 -47 8 -35 9 22 23 12 23 -17 0 -34 -26
-49 -35 -20 -7 20 -15 22 -55 9 -25 -8 -25 -8 -2 -9 13 -1 21 -5 18 -9 -3 -5
-54 0 -113 10 -59 9 -139 22 -178 28 -109 16 -142 26 -176 54 -17 14 -35 26
-40 26 -5 0 -9 6 -9 13 0 8 -9 22 -19 31 -27 24 -58 94 -67 147 -8 56 -12 379
-4 379 4 0 6 10 6 23 -1 21 3 22 67 24 38 1 71 4 74 7 12 11 302 -3 368 -19z
m1047 -494 c13 -5 49 -17 81 -27 50 -15 60 -22 72 -51 8 -19 25 -43 37 -54
l23 -20 -35 17 c-19 9 -55 33 -80 53 -25 21 -62 47 -83 59 l-38 22 -48 -28
c-26 -15 -68 -40 -94 -57 -44 -29 -104 -66 -120 -73 -4 -2 -5 9 -2 25 7 31 75
99 115 115 66 27 134 34 172 19z m-1802 -140 c0 -13 -29 -35 -37 -28 -7 8 15
37 28 37 5 0 9 -4 9 -9z m2875 -57 c-21 -15 -94 -38 -101 -31 -3 2 21 13 53
24 73 25 72 25 48 7z m-1909 -19 c2 -13 -24 -30 -33 -21 -3 2 1 14 7 26 12 22
22 20 26 -5z m44 11 c0 -11 -19 -15 -25 -6 -3 5 1 10 9 10 9 0 16 -2 16 -4z
m-1275 -575 c3 -5 1 -12 -5 -16 -5 -3 -10 1 -10 9 0 18 6 21 15 7z m267 -2891
c5 -59 4 -80 -3 -80 -4 0 -8 8 -7 17 0 10 -3 33 -7 51 -5 21 -4 32 4 32 6 0
12 -9 13 -20z"/>
<path d="M3609 3823 c-1 -5 -1 -11 0 -15 0 -5 -4 -8 -10 -8 -5 0 -7 -5 -3 -12
5 -7 11 -5 21 7 7 11 13 22 13 27 0 10 -20 11 -21 1z"/>
<path d="M4130 4360 c0 -5 0 -11 0 -12 -1 -2 -5 -20 -9 -40 -9 -39 -4 -47 17
-26 14 14 16 88 2 88 -5 0 -10 -4 -10 -10z"/>
<path d="M3876 4313 c-11 -11 -7 -22 13 -32 16 -9 18 -8 14 9 -6 23 -17 33
-27 23z"/>
<path d="M5906 3861 c-4 -6 -5 -15 -1 -20 3 -5 1 -12 -5 -16 -12 -8 -13 -35
-1 -35 13 0 30 55 21 70 -5 9 -9 9 -14 1z"/>
<path d="M5855 3748 c-43 -69 -47 -80 -41 -114 5 -25 12 -34 26 -34 11 0 20 5
20 10 0 6 6 10 14 10 20 0 31 19 18 32 -10 10 -1 60 16 81 5 7 12 20 15 30 5
13 1 17 -21 17 -20 0 -33 -9 -47 -32z"/>
<path d="M5110 3659 c0 -5 9 -9 20 -9 11 0 20 4 20 8 0 4 -9 8 -20 9 -11 1
-20 -2 -20 -8z"/>
<path d="M6035 3630 c4 -6 1 -17 -5 -25 -10 -12 -9 -15 4 -15 10 0 16 9 16 25
0 14 -5 25 -11 25 -5 0 -7 -5 -4 -10z"/>
<path d="M5980 3590 c0 -5 5 -10 10 -10 6 0 10 5 10 10 0 6 -4 10 -10 10 -5 0
-10 -4 -10 -10z"/>
<path d="M1743 2243 c-15 -5 -17 -29 -4 -37 12 -8 31 17 23 30 -4 6 -13 9 -19
7z"/>
<path d="M6277 2133 c-4 -3 -7 -11 -7 -17 0 -6 5 -5 12 2 6 6 9 14 7 17 -3 3
-9 2 -12 -2z"/>
</g>
</svg>
